<svg width="32" height="32" viewBox="0 0 32 32" fill="none" xmlns="http://www.w3.org/2000/svg">
    <path d="M16 27.95C9.4 27.95 4.05 22.6 4.05 16C4.05 9.39998 9.4 4.04999 16 4.04999C22.6 4.04999 27.95 9.39998 27.95 16C27.95 22.6 22.6 27.95 16 27.95ZM16 5.34999C10.15 5.34999 5.35 10.15 5.35 16C5.35 21.85 10.15 26.65 16 26.65C21.85 26.65 26.65 21.85 26.65 16C26.65 10.15 21.85 5.34999 16 5.34999Z"
          fill="black"/>
    <path d="M9.65001 15.3H22.35V16.7H9.65001V15.3Z" fill="black"/>
    <path d="M15.3 9.64996H16.7V22.35H15.3V9.64996Z" fill="black"/>
</svg>
