<svg width="22" height="30" viewBox="0 0 22 30" fill="none" xmlns="http://www.w3.org/2000/svg">
    <path d="M10.9963 0.933838C5.31201 0.933838 0.685671 5.56202 0.685669 11.2463C0.685665 21.2483 10.4159 28.8519 10.4159 28.8519C10.7577 29.1242 11.2423 29.1242 11.5841 28.8519C11.5841 28.8519 21.3162 21.2483 21.3162 11.2463C21.3161 5.56202 16.6807 0.933838 10.9963 0.933838ZM10.9963 6.56067C13.5741 6.56067 15.6893 8.66862 15.6893 11.2463C15.6893 13.8241 13.5741 15.9375 10.9963 15.9375C8.4186 15.9375 6.31065 13.8241 6.31067 11.2463C6.31068 8.66862 8.41861 6.56067 10.9963 6.56067Z"
          fill="black"/>
</svg>
