<svg width="32" height="30" viewBox="0 0 32 30" fill="none" xmlns="http://www.w3.org/2000/svg">
    <path d="M13.3333 1.11111C13.3333 0.816426 13.4504 0.533811 13.6588 0.325437C13.8671 0.117063 14.1498 0 14.4444 0H16.6667C16.9614 0 17.244 0.117063 17.4523 0.325437C17.6607 0.533811 17.7778 0.816426 17.7778 1.11111C17.7778 1.4058 17.6607 1.68841 17.4523 1.89679C17.244 2.10516 16.9614 2.22222 16.6667 2.22222H14.4444C14.1498 2.22222 13.8671 2.10516 13.6588 1.89679C13.4504 1.68841 13.3333 1.4058 13.3333 1.11111ZM25.5556 7.77778H27.7778C28.0725 7.77778 28.3551 7.66071 28.5635 7.45234C28.7718 7.24397 28.8889 6.96135 28.8889 6.66667C28.8889 6.37198 28.7718 6.08937 28.5635 5.88099C28.3551 5.67262 28.0725 5.55556 27.7778 5.55556H25.5556C25.2609 5.55556 24.9783 5.67262 24.7699 5.88099C24.5615 6.08937 24.4444 6.37198 24.4444 6.66667C24.4444 6.96135 24.5615 7.24397 24.7699 7.45234C24.9783 7.66071 25.2609 7.77778 25.5556 7.77778ZM27.7778 15.5556H30C30.2947 15.5556 30.5773 15.4385 30.7857 15.2301C30.994 15.0217 31.1111 14.7391 31.1111 14.4444C31.1111 14.1498 30.994 13.8671 30.7857 13.6588C30.5773 13.4504 30.2947 13.3333 30 13.3333H27.7778C27.4831 13.3333 27.2005 13.4504 26.9921 13.6588C26.7837 13.8671 26.6667 14.1498 26.6667 14.4444C26.6667 14.7391 26.7837 15.0217 26.9921 15.2301C27.2005 15.4385 27.4831 15.5556 27.7778 15.5556ZM3.33333 13.3333H1.11111C0.816426 13.3333 0.533811 13.4504 0.325437 13.6588C0.117063 13.8671 0 14.1498 0 14.4444C0 14.7391 0.117063 15.0217 0.325437 15.2301C0.533811 15.4385 0.816426 15.5556 1.11111 15.5556H3.33333C3.62802 15.5556 3.91063 15.4385 4.11901 15.2301C4.32738 15.0217 4.44444 14.7391 4.44444 14.4444C4.44444 14.1498 4.32738 13.8671 4.11901 13.6588C3.91063 13.4504 3.62802 13.3333 3.33333 13.3333ZM3.33333 7.77778H5.55556C5.85024 7.77778 6.13286 7.66071 6.34123 7.45234C6.5496 7.24397 6.66667 6.96135 6.66667 6.66667C6.66667 6.37198 6.5496 6.08937 6.34123 5.88099C6.13286 5.67262 5.85024 5.55556 5.55556 5.55556H3.33333C3.03865 5.55556 2.75603 5.67262 2.54766 5.88099C2.33929 6.08937 2.22222 6.37198 2.22222 6.66667C2.22222 6.96135 2.33929 7.24397 2.54766 7.45234C2.75603 7.66071 3.03865 7.77778 3.33333 7.77778ZM31.1111 28.8889C31.1111 29.1836 30.994 29.4662 30.7857 29.6746C30.5773 29.8829 30.2947 30 30 30H1.11111C0.816426 30 0.533811 29.8829 0.325437 29.6746C0.117063 29.4662 0 29.1836 0 28.8889C0 28.5942 0.117063 28.3116 0.325437 28.1032C0.533811 27.8948 0.816426 27.7778 1.11111 27.7778H4.97778L8.31111 22.8889C8.1 22.7111 7.9 22.5333 7.71111 22.3444C7.68252 22.6063 7.56179 22.8496 7.37049 23.0307C7.17918 23.2118 6.92973 23.3191 6.66667 23.3333H4.44444C4.14976 23.3333 3.86714 23.2163 3.65877 23.0079C3.4504 22.7995 3.33333 22.5169 3.33333 22.2222C3.33333 21.9275 3.4504 21.6449 3.65877 21.4365C3.86714 21.2282 4.14976 21.1111 4.44444 21.1111H6.66667C5.42859 19.4603 4.67465 17.4974 4.48934 15.4423C4.30403 13.3872 4.69467 11.321 5.61748 9.47541C6.54029 7.62979 7.95881 6.0776 9.7141 4.99277C11.4694 3.90794 13.4921 3.33333 15.5556 3.33333C17.619 3.33333 19.6417 3.90794 21.397 4.99277C23.1523 6.0776 24.5708 7.62979 25.4936 9.47541C26.4164 11.321 26.8071 13.3872 26.6218 15.4423C26.4365 17.4974 25.6825 19.4603 24.4444 21.1111H26.6667C26.9614 21.1111 27.244 21.2282 27.4523 21.4365C27.6607 21.6449 27.7778 21.9275 27.7778 22.2222C27.7778 22.5169 27.6607 22.7995 27.4523 23.0079C27.244 23.2163 26.9614 23.3333 26.6667 23.3333H24.4444C24.1698 23.335 23.9042 23.2349 23.699 23.0522C23.4938 22.8696 23.3635 22.6175 23.3333 22.3444C23.1444 22.5333 22.9444 22.7111 22.7333 22.8889L26.0667 27.7778H30C30.2947 27.7778 30.5773 27.8948 30.7857 28.1032C30.994 28.3116 31.1111 28.5942 31.1111 28.8889ZM14.4444 23.2556V18L11.4556 22.3222C12.3879 22.81 13.4003 23.1261 14.4444 23.2556ZM6.74444 13.3333H12.8778L8.54444 9C7.56427 10.2555 6.94227 11.7529 6.74444 13.3333ZM22.5667 9L18.2333 13.3333H24.3667C24.1688 11.7529 23.5468 10.2555 22.5667 9ZM21 7.43333C19.7445 6.45316 18.2471 5.83116 16.6667 5.63333V11.7667L21 7.43333ZM14.4444 5.63333C12.864 5.83116 11.3666 6.45316 10.1111 7.43333L14.4444 11.7667V5.63333ZM16.6667 23.2556C17.7108 23.1261 18.7232 22.81 19.6556 22.3222L16.6667 18V23.2556ZM21.4778 21.0333C23.0662 19.6127 24.0915 17.6687 24.3667 15.5556H17.7L21.4778 21.0333ZM9.63333 21.1111L13.4333 15.5556H6.76667C7.01801 17.6934 8.03661 19.6675 9.63333 21.1111ZM7.67778 27.7778H23.4333L20.9333 24.1667C19.2872 25.0772 17.4368 25.5548 15.5556 25.5548C13.6744 25.5548 11.824 25.0772 10.1778 24.1667L7.67778 27.7778Z"
          fill="black"/>
</svg>
