<svg width="30" height="27" viewBox="0 0 30 27" fill="none" xmlns="http://www.w3.org/2000/svg">
    <path id="save"
          d="M0 23.4375C0 24.1834 0.296316 24.8988 0.823762 25.4262C1.35121 25.9537 2.06658 26.25 2.8125 26.25H27.1875C27.9334 26.25 28.6488 25.9537 29.1762 25.4262C29.7037 24.8988 30 24.1834 30 23.4375V10.3125C30 9.56658 29.7037 8.85121 29.1762 8.32376C28.6488 7.79632 27.9334 7.5 27.1875 7.5H2.8125C2.06658 7.5 1.35121 7.79632 0.823762 8.32376C0.296316 8.85121 0 9.56658 0 10.3125L0 23.4375ZM3.75 4.6875C3.75 4.93614 3.84877 5.1746 4.02459 5.35041C4.2004 5.52623 4.43886 5.625 4.6875 5.625H25.3125C25.5611 5.625 25.7996 5.52623 25.9754 5.35041C26.1512 5.1746 26.25 4.93614 26.25 4.6875C26.25 4.43886 26.1512 4.2004 25.9754 4.02459C25.7996 3.84877 25.5611 3.75 25.3125 3.75H4.6875C4.43886 3.75 4.2004 3.84877 4.02459 4.02459C3.84877 4.2004 3.75 4.43886 3.75 4.6875ZM7.5 0.9375C7.5 1.18614 7.59877 1.4246 7.77459 1.60041C7.9504 1.77623 8.18886 1.875 8.4375 1.875H21.5625C21.8111 1.875 22.0496 1.77623 22.2254 1.60041C22.4012 1.4246 22.5 1.18614 22.5 0.9375C22.5 0.68886 22.4012 0.450403 22.2254 0.274587C22.0496 0.098772 21.8111 0 21.5625 0H8.4375C8.18886 0 7.9504 0.098772 7.77459 0.274587C7.59877 0.450403 7.5 0.68886 7.5 0.9375Z"
          fill="black"/>
</svg>
