<svg width="25" height="25" viewBox="0 0 25 25" fill="none" xmlns="http://www.w3.org/2000/svg">
    <path d="M11.1328 3.35303C7.78906 3.35303 5.07812 6.06348 5.07812 9.40771C5.07812 12.7515 7.78906 15.4624 11.1328 15.4624C14.4766 15.4624 17.1875 12.7515 17.1875 9.40771C17.1875 6.06348 14.4766 3.35303 11.1328 3.35303ZM11.1328 13.8315C8.68945 13.8315 6.70898 11.8506 6.70898 9.40771C6.70898 6.96436 8.68945 4.98389 11.1328 4.98389C13.5762 4.98389 15.5566 6.96436 15.5566 9.40771C15.5566 11.8506 13.5762 13.8315 11.1328 13.8315Z"
          fill="gray"/>
    <path d="M19.1792 20.2299C19.4768 20.677 19.3803 21.2691 18.9648 21.5455C18.5494 21.822 17.966 21.6824 17.6684 21.2352L13.3402 14.7311C13.0427 14.2839 13.1392 13.6919 13.5546 13.4155C13.9702 13.139 14.5536 13.2786 14.8511 13.7258L19.1792 20.2299Z"
          fill="gray"/>
</svg>
