<svg width="21" height="20" viewBox="0 0 21 20" fill="none" xmlns="http://www.w3.org/2000/svg">
    <path d="M8.88889 0.740741C8.88889 0.544284 8.96693 0.355874 9.10585 0.216958C9.24476 0.0780421 9.43317 0 9.62963 0H11.1111C11.3076 0 11.496 0.0780421 11.6349 0.216958C11.7738 0.355874 11.8519 0.544284 11.8519 0.740741C11.8519 0.937197 11.7738 1.12561 11.6349 1.26452C11.496 1.40344 11.3076 1.48148 11.1111 1.48148H9.62963C9.43317 1.48148 9.24476 1.40344 9.10585 1.26452C8.96693 1.12561 8.88889 0.937197 8.88889 0.740741ZM17.037 5.18519H18.5185C18.715 5.18519 18.9034 5.10714 19.0423 4.96823C19.1812 4.82931 19.2593 4.6409 19.2593 4.44444C19.2593 4.24799 19.1812 4.05958 19.0423 3.92066C18.9034 3.78175 18.715 3.7037 18.5185 3.7037H17.037C16.8406 3.7037 16.6522 3.78175 16.5133 3.92066C16.3743 4.05958 16.2963 4.24799 16.2963 4.44444C16.2963 4.6409 16.3743 4.82931 16.5133 4.96823C16.6522 5.10714 16.8406 5.18519 17.037 5.18519ZM18.5185 10.3704H20C20.1965 10.3704 20.3849 10.2923 20.5238 10.1534C20.6627 10.0145 20.7407 9.82609 20.7407 9.62963C20.7407 9.43317 20.6627 9.24476 20.5238 9.10585C20.3849 8.96693 20.1965 8.88889 20 8.88889H18.5185C18.3221 8.88889 18.1337 8.96693 17.9947 9.10585C17.8558 9.24476 17.7778 9.43317 17.7778 9.62963C17.7778 9.82609 17.8558 10.0145 17.9947 10.1534C18.1337 10.2923 18.3221 10.3704 18.5185 10.3704ZM2.22222 8.88889H0.740741C0.544284 8.88889 0.355874 8.96693 0.216958 9.10585C0.0780421 9.24476 0 9.43317 0 9.62963C0 9.82609 0.0780421 10.0145 0.216958 10.1534C0.355874 10.2923 0.544284 10.3704 0.740741 10.3704H2.22222C2.41868 10.3704 2.60709 10.2923 2.746 10.1534C2.88492 10.0145 2.96296 9.82609 2.96296 9.62963C2.96296 9.43317 2.88492 9.24476 2.746 9.10585C2.60709 8.96693 2.41868 8.88889 2.22222 8.88889ZM2.22222 5.18519H3.7037C3.90016 5.18519 4.08857 5.10714 4.22749 4.96823C4.3664 4.82931 4.44444 4.6409 4.44444 4.44444C4.44444 4.24799 4.3664 4.05958 4.22749 3.92066C4.08857 3.78175 3.90016 3.7037 3.7037 3.7037H2.22222C2.02577 3.7037 1.83736 3.78175 1.69844 3.92066C1.55952 4.05958 1.48148 4.24799 1.48148 4.44444C1.48148 4.6409 1.55952 4.82931 1.69844 4.96823C1.83736 5.10714 2.02577 5.18519 2.22222 5.18519ZM20.7407 19.2593C20.7407 19.4557 20.6627 19.6441 20.5238 19.783C20.3849 19.922 20.1965 20 20 20H0.740741C0.544284 20 0.355874 19.922 0.216958 19.783C0.0780421 19.6441 0 19.4557 0 19.2593C0 19.0628 0.0780421 18.8744 0.216958 18.7355C0.355874 18.5966 0.544284 18.5185 0.740741 18.5185H3.31852L5.54074 15.2593C5.4 15.1407 5.26667 15.0222 5.14074 14.8963C5.12168 15.0709 5.0412 15.233 4.91366 15.3538C4.78612 15.4745 4.61982 15.5461 4.44444 15.5556H2.96296C2.76651 15.5556 2.5781 15.4775 2.43918 15.3386C2.30026 15.1997 2.22222 15.0113 2.22222 14.8148C2.22222 14.6184 2.30026 14.4299 2.43918 14.291C2.5781 14.1521 2.76651 14.0741 2.96296 14.0741H4.44444C3.61906 12.9736 3.11643 11.6649 2.99289 10.2949C2.86935 8.92477 3.12978 7.54735 3.74498 6.31694C4.36019 5.08652 5.30587 4.05173 6.47607 3.32851C7.64626 2.60529 8.99473 2.22222 10.3704 2.22222C11.746 2.22222 13.0945 2.60529 14.2647 3.32851C15.4349 4.05173 16.3805 5.08652 16.9958 6.31694C17.611 7.54735 17.8714 8.92477 17.7478 10.2949C17.6243 11.6649 17.1217 12.9736 16.2963 14.0741H17.7778C17.9742 14.0741 18.1626 14.1521 18.3016 14.291C18.4405 14.4299 18.5185 14.6184 18.5185 14.8148C18.5185 15.0113 18.4405 15.1997 18.3016 15.3386C18.1626 15.4775 17.9742 15.5556 17.7778 15.5556H16.2963C16.1132 15.5567 15.9361 15.4899 15.7993 15.3682C15.6625 15.2464 15.5757 15.0783 15.5556 14.8963C15.4296 15.0222 15.2963 15.1407 15.1556 15.2593L17.3778 18.5185H20C20.1965 18.5185 20.3849 18.5966 20.5238 18.7355C20.6627 18.8744 20.7407 19.0628 20.7407 19.2593ZM9.62963 15.5037V12L7.63704 14.8815C8.25857 15.2066 8.93351 15.4174 9.62963 15.5037ZM4.4963 8.88889H8.58519L5.6963 6C5.04285 6.83698 4.62818 7.83526 4.4963 8.88889ZM15.0444 6L12.1556 8.88889H16.2444C16.1126 7.83526 15.6979 6.83698 15.0444 6ZM14 4.95556C13.163 4.30211 12.1647 3.88744 11.1111 3.75556V7.84444L14 4.95556ZM9.62963 3.75556C8.576 3.88744 7.57772 4.30211 6.74074 4.95556L9.62963 7.84444V3.75556ZM11.1111 15.5037C11.8072 15.4174 12.4822 15.2066 13.1037 14.8815L11.1111 12V15.5037ZM14.3185 14.0222C15.3775 13.0752 16.061 11.7792 16.2444 10.3704H11.8L14.3185 14.0222ZM6.42222 14.0741L8.95556 10.3704H4.51111C4.67868 11.7956 5.35774 13.1116 6.42222 14.0741ZM5.11852 18.5185H15.6222L13.9556 16.1111C12.8581 16.7181 11.6245 17.0365 10.3704 17.0365C9.11624 17.0365 7.88264 16.7181 6.78518 16.1111L5.11852 18.5185Z"
          fill="black"/>
</svg>
