<svg width="21" height="20" viewBox="0 0 21 20" fill="none" xmlns="http://www.w3.org/2000/svg">
    <path d="M13.3998 19.5234C14.7607 19.0835 16.0145 18.3641 17.0811 17.4112C18.1476 16.4584 19.0033 15.2932 19.5932 13.9904H16.3366C15.7664 16.3734 14.7246 18.3217 13.3998 19.5234Z"
          fill="black"/>
    <path d="M11.0742 13.9904V19.0558C12.6082 18.5349 13.9289 16.5949 14.6303 13.9904H11.0742Z" fill="black"/>
    <path d="M9.43363 19.0558V13.9904H5.8735C6.57484 16.5949 7.89555 18.5349 9.43363 19.0558Z" fill="black"/>
    <path d="M4.17131 13.9904H0.914673C1.50423 15.2942 2.36025 16.4601 3.42765 17.413C4.49504 18.366 5.75014 19.0849 7.11217 19.5234C5.77916 18.3258 4.73733 16.3775 4.17131 13.9904Z"
          fill="black"/>
    <path d="M20.1715 7.15723H16.636C16.7555 8.02026 16.8158 8.89045 16.8164 9.76172C16.8171 10.6274 16.7582 11.4922 16.6401 12.3498H20.1756C20.6199 10.6473 20.6185 8.85905 20.1715 7.15723Z"
          fill="black"/>
    <path d="M15.1758 9.76172C15.1747 8.88973 15.1075 8.01907 14.9748 7.15723H11.0742V12.3498H14.9748C15.1075 11.4935 15.1747 10.6283 15.1758 9.76172Z"
          fill="black"/>
    <path d="M5.33206 9.76172C5.3319 10.6282 5.39771 11.4934 5.52894 12.3498H9.43362V7.15723H5.52894C5.39772 8.01918 5.33191 8.88983 5.33206 9.76172Z"
          fill="black"/>
    <path d="M3.69143 9.76172C3.69076 8.89055 3.74968 8.02035 3.8678 7.15723H0.336353C-0.110724 8.85904 -0.112136 10.6473 0.332251 12.3498H3.8637C3.74902 11.4919 3.69147 10.6273 3.69143 9.76172Z"
          fill="black"/>
    <path d="M19.585 5.5166C18.995 4.21706 18.1401 3.05509 17.075 2.10512C16.0099 1.15515 14.7581 0.438128 13.3998 0C14.7246 1.19766 15.7623 3.1418 16.3325 5.5166H19.585Z"
          fill="black"/>
    <path d="M11.0742 0.46759V5.51661H14.6262C13.9248 2.92033 12.6082 0.984387 11.0742 0.46759Z" fill="black"/>
    <path d="M5.87759 5.51661H9.43362V0.46759C7.89553 0.984387 6.57893 2.92033 5.87759 5.51661Z" fill="black"/>
    <path d="M7.10397 0C5.74655 0.43884 4.49566 1.15616 3.43132 2.10608C2.36698 3.056 1.51262 4.21761 0.922882 5.5166H4.17132C4.74144 3.1418 5.77917 1.19766 7.10397 0Z"
          fill="black"/>
</svg>
