<svg width="18" height="20" viewBox="0 0 18 20" fill="none" xmlns="http://www.w3.org/2000/svg">
    <path d="M7.42999 16.75C7.79999 16.29 8.36999 16 8.99999 16C9.62999 16 10.19 16.29 10.56 16.75C10.95 16.66 11.32 16.54 11.68 16.39L10.26 13.21C9.86999 13.36 9.43999 13.44 8.99999 13.44C8.53999 13.44 8.09999 13.35 7.69999 13.19L6.26999 16.38C6.64999 16.54 7.02999 16.67 7.42999 16.75ZM2.14999 8C1.98999 8.59 1.89999 9.21 1.89999 9.85C1.89999 10.6 2.01999 11.32 2.22999 12C2.85999 12.05 3.44999 12.4 3.78999 12.99C4.11999 13.56 4.13999 14.22 3.89999 14.78C4.16999 15.05 4.45999 15.31 4.76999 15.54L6.28999 12.15C5.81999 11.57 5.53999 10.83 5.53999 10.02C5.53999 8.13 7.08999 6.61 8.99999 6.61C10.91 6.61 12.46 8.14 12.46 10.02C12.46 10.84 12.17 11.59 11.68 12.18L13.18 15.53C13.5 15.29 13.8 15.03 14.08 14.74C13.86 14.19 13.88 13.54 14.2 12.99C14.53 12.42 15.1 12.07 15.72 12C15.94 11.32 16.06 10.59 16.06 9.84C16.06 9.2 15.97 8.57 15.81 7.98C15.17 7.94 14.55 7.59 14.21 6.98C13.85 6.36 13.86 5.62 14.18 5.03C13.27 4.05 12.08 3.32 10.74 2.98C10.39 3.6 9.73999 4 8.99999 4C8.25999 4 7.60999 3.59 7.25999 2.99C5.91999 3.33 4.72999 4.04 3.81999 5.02C4.14999 5.62 4.16999 6.37 3.79999 7C3.44999 7.62 2.80999 7.97 2.14999 8ZM0.84999 7.58C0.0699903 6.98 -0.17001 5.88 0.33999 5C0.84999 4.12 1.91999 3.77 2.82999 4.15C3.93999 2.98 5.38999 2.12 7.00999 1.73C7.14999 0.75 7.98999 0 8.99999 0C10.01 0 10.85 0.75 10.98 1.73C12.61 2.12 14.05 2.97 15.16 4.15C16.07 3.77 17.15 4.12 17.65 5C18.16 5.88 17.92 6.98 17.14 7.58C17.37 8.35 17.49 9.16 17.49 10C17.49 10.84 17.37 11.65 17.14 12.42C17.92 13.02 18.16 14.12 17.65 15C17.14 15.88 16.07 16.23 15.16 15.85C14.76 16.28 14.31 16.66 13.82 17L15.16 20H13.3L12.33 17.83C11.9 18.01 11.45 18.16 10.99 18.27C10.85 19.25 10.01 20 8.99999 20C7.98999 20 7.14999 19.25 7.01999 18.27C6.53999 18.15 6.07999 18 5.63999 17.81L4.65999 20H2.77999L4.13999 16.97C3.67089 16.6403 3.23545 16.2652 2.83999 15.85C1.91999 16.23 0.84999 15.88 0.33999 15C-0.17001 14.12 0.0699903 13.02 0.84999 12.42C0.61999 11.65 0.49999 10.84 0.49999 10C0.49999 9.16 0.61999 8.35 0.84999 7.58Z"
          fill="black"/>
</svg>
